HIERARCHY
ROOT locator2
{
  OFFSET 53.6172 30.1899 0.816905
  CHANNELS 6 Xposition Yposition Zposition Zrotation Xrotation Yrotation
  JOINT koshi
  {
    OFFSET 0 0 0
    CHANNELS 6 Xposition Yposition Zposition Zrotation Xrotation Yrotation
    JOINT sippo01
    {
      OFFSET 0 42.8363 -0.548134
      CHANNELS 6 Xposition Yposition Zposition Zrotation Xrotation Yrotation
      JOINT sippo02
      {
        OFFSET 0 44.0461 -3.28882
        CHANNELS 6 Xposition Yposition Zposition Zrotation Xrotation Yrotation
        JOINT sippo03
        {
          OFFSET 0 34.1929 -2.46662
          CHANNELS 6 Xposition Yposition Zposition Zrotation Xrotation Yrotation
          JOINT sippo04
          {
            OFFSET 0 30.0959 -1.75404
            CHANNELS 6 Xposition Yposition Zposition Zrotation Xrotation Yrotation
            JOINT sippo05
            {
              OFFSET 0 28.3637 -1.75404
              CHANNELS 6 Xposition Yposition Zposition Zrotation Xrotation Yrotation
              JOINT sippo06
              {
                OFFSET 0 31.6071 -3.2043
                CHANNELS 6 Xposition Yposition Zposition Zrotation Xrotation Yrotation
                End Site
                {
                  OFFSET 0 0 0
                }
              }
            }
          }
        }
      }
    }
    JOINT R_momo
    {
      OFFSET -27.891 13.5892 3.92723
      CHANNELS 6 Xposition Yposition Zposition Zrotation Xrotation Yrotation
      JOINT R_hiza
      {
        OFFSET 0 28.01 1.8232
        CHANNELS 6 Xposition Yposition Zposition Zrotation Xrotation Yrotation
        JOINT R_ashi
        {
          OFFSET 0 24.3992 -2.49174
          CHANNELS 6 Xposition Yposition Zposition Zrotation Xrotation Yrotation
          End Site
          {
            OFFSET 0 0 0
          }
        }
      }
    }
    JOINT L_momo
    {
      OFFSET 27.891 13.5892 3.92714
      CHANNELS 6 Xposition Yposition Zposition Zrotation Xrotation Yrotation
      JOINT L_hiza
      {
        OFFSET 0 28.0098 1.82319
        CHANNELS 6 Xposition Yposition Zposition Zrotation Xrotation Yrotation
        JOINT L_ashi
        {
          OFFSET 0 24.3992 -2.49171
          CHANNELS 6 Xposition Yposition Zposition Zrotation Xrotation Yrotation
          End Site
          {
            OFFSET 0 0 0
          }
        }
      }
    }
  }
  JOINT hara
  {
    OFFSET 0 2.15392 0
    CHANNELS 6 Xposition Yposition Zposition Zrotation Xrotation Yrotation
    JOINT mune
    {
      OFFSET 0 62.0609 0.472494
      CHANNELS 6 Xposition Yposition Zposition Zrotation Xrotation Yrotation
      JOINT R_kata
      {
        OFFSET 22.6695 9.65301 -5.3622
        CHANNELS 6 Xposition Yposition Zposition Zrotation Xrotation Yrotation
        JOINT R_hiji
        {
          OFFSET 0 25.813 1.69098
          CHANNELS 6 Xposition Yposition Zposition Zrotation Xrotation Yrotation
          JOINT R_te
          {
            OFFSET 0 28.5636 -0.966307
            CHANNELS 6 Xposition Yposition Zposition Zrotation Xrotation Yrotation
            End Site
            {
              OFFSET 0 0 0
            }
          }
        }
      }
      JOINT L_kata
      {
        OFFSET -22.6695 9.65298 -5.3622
        CHANNELS 6 Xposition Yposition Zposition Zrotation Xrotation Yrotation
        JOINT L_hiji
        {
          OFFSET 0 25.813 1.69102
          CHANNELS 6 Xposition Yposition Zposition Zrotation Xrotation Yrotation
          JOINT L_te
          {
            OFFSET 0 28.5636 -0.966295
            CHANNELS 6 Xposition Yposition Zposition Zrotation Xrotation Yrotation
            End Site
            {
              OFFSET 0 0 0
            }
          }
        }
      }
      JOINT kubi
      {
        OFFSET 0 23.1438 -0.944988
        CHANNELS 6 Xposition Yposition Zposition Zrotation Xrotation Yrotation
        JOINT atama
        {
          OFFSET 0 20.8625 4.12737
          CHANNELS 6 Xposition Yposition Zposition Zrotation Xrotation Yrotation
          JOINT ago
          {
            OFFSET 0 7.552 -7.58201
            CHANNELS 6 Xposition Yposition Zposition Zrotation Xrotation Yrotation
            End Site
            {
              OFFSET 0 0 0
            }
          }
        }
      }
    }
  }
}
MOTION
Frames:	8
Frame Time:	0.0333333
-34.7148 29.7575 -0.320485 -90 -3.50835e-015 -90 0 0 0 -173.437 0.688978 0.143506 4.32134e-007 42.8363 -0.548134 0.486952 -9.70567 4.45041 1.71008e-006 44.0461 -3.28882 2.1231 11.2638 -1.54351 1.04226e-006 34.1929 -2.46661 2.35417 8.23525 3.94857 -3.54417e-006 30.0959 -1.75404 6.23943 13.3397 -2.68231 6.21558e-006 28.3637 -1.75404 9.04746 1.12815 4.4185 1.74678e-006 31.6072 -3.20429 5.93221 1.02871 -10.5092 -27.891 13.5892 3.92723 124.264 -29.7909 -57.323 3.4201e-006 28.01 1.8232 0.137957 -76.1037 2.62999 3.9107e-006 24.3992 -2.49173 -139.342 69.0123 -167.723 27.891 13.5892 3.92714 -157.599 -8.61787 54.0801 -3.7995e-006 28.0098 1.82319 8.80173 -60.6345 -41.5679 -4.95812e-006 24.3992 -2.49173 -13.7931 15.2907 -19.7061 6.07685e-007 2.15392 -3.55271e-015 -3.29815 -3.48048 -2.05461 4.44089e-016 62.0609 0.472494 -4.96962e-014 6.38223e-014 2.73528e-012 22.6695 9.65299 -5.3622 -75.0072 -7.42516 69.9801 -1.14441e-005 25.813 1.69098 179.415 -83.3894 -178.894 3.59089e-008 28.5636 -0.966314 16.8561 55.1591 -91.3361 -22.6695 9.65298 -5.3622 119.59 5.84754 -50.4763 3.8147e-006 25.813 1.69102 -179.762 -84.1611 177.76 -1.09235e-007 28.5636 -0.966295 -44.5309 39.7926 96.307 4.18776e-013 23.1438 -0.94499 -2.45568 5.0348 7.5641 -1.1176e-008 20.8625 4.12738 -0.543639 5.64011 7.68436 -1.26952e-007 7.55203 -7.58201 -1.01232e-005 7.15646 1.4528e-006 
-31.4376 29.7169 -0.154298 -90 -3.50835e-015 -90 0 0 0 -174.165 0.00842581 0.166448 4.32134e-007 42.8363 -0.548134 0.26429 -8.49421 4.79565 1.72635e-006 44.0461 -3.28882 1.26531 11.6842 -0.752855 1.28475e-006 34.1929 -2.46661 1.2838 9.37528 5.1185 -2.98801e-006 30.0959 -1.75404 5.35931 13.8076 -2.75406 7.21199e-006 28.3637 -1.75404 8.23702 5.33877 3.80448 3.02552e-006 31.6072 -3.20429 5.45932 3.29003 -11.6145 -27.891 13.5892 3.92723 120.277 -31.5221 -60.6077 3.35335e-006 28.01 1.8232 0.721691 -75.3353 0.246907 4.04258e-006 24.3992 -2.49173 -142.482 64.4333 -164.287 27.891 13.5892 3.92714 -157.186 -8.80998 52.7546 -3.83255e-006 28.0098 1.82319 8.47312 -55.9361 -47.0194 -5.87532e-006 24.3992 -2.49173 -10.9213 14.8415 -13.2592 6.07685e-007 2.15392 0 -3.8069 -2.50444 -2.31665 4.44089e-016 62.0609 0.472494 -1.51076e-013 4.96465e-014 1.46826e-007 22.6695 9.65299 -5.3622 -66.4278 -11.2683 68.9376 -1.14441e-005 25.813 1.69098 1.71365 -87.2677 3.24139 3.63824e-009 28.5636 -0.966314 21.008 54.6055 -93.2542 -22.6695 9.65298 -5.3622 124.712 5.52557 -47.1807 3.8147e-006 25.813 1.69102 -179.642 -85.7975 178.151 -9.67121e-008 28.5636 -0.966295 -46.3071 34.3318 94.8719 4.19664e-013 23.1438 -0.94499 -2.53407 4.83375 6.94685 -1.1176e-008 20.8625 4.12738 -0.30014 5.54081 7.29879 -1.25223e-007 7.55203 -7.58201 -1.27597e-006 7.24407 1.00984e-005 
-28.128 29.9075 0.0135353 -90 -3.50835e-015 -90 0 0 0 -174.9 -0.697864 0.171123 4.32134e-007 42.8363 -0.548134 0.0379182 -7.27253 5.15313 1.7418e-006 44.0461 -3.28882 0.395498 12.107 0.0595155 1.52674e-006 34.1929 -2.46661 0.196428 10.5241 5.87871 -2.41548e-006 30.0959 -1.75404 4.46722 14.2782 -2.81188 8.21962e-006 28.3637 -1.75404 7.42882 8.44833 3.45699 4.39676e-006 31.6072 -3.20429 4.98787 5.57712 -12.6927 -27.891 13.5892 3.92723 114.076 -34.2449 -65.0968 3.27134e-006 28.01 1.8232 1.25138 -74.5586 -2.22128 4.17728e-006 24.3992 -2.49173 -144.501 59.7721 -161.81 27.891 13.5892 3.92714 -156.768 -9.00227 51.419 -3.86652e-006 28.0098 1.82319 7.05232 -51.2727 -48.2781 -6.38034e-006 24.3992 -2.49173 -9.23681 14.2984 -12.7478 6.07685e-007 2.15392 0 -4.3204 -1.52054 -2.56317 -8.88178e-016 62.0609 0.472494 -1.59028e-015 3.80176e-015 4.21423e-013 22.6695 9.65299 -5.3622 -59.3997 -15.5781 68.8993 -1.14441e-005 25.813 1.69098 0.473684 -78.324 1.83412 -2.04512e-008 28.5636 -0.966314 26.5634 53.56 -97.2926 -22.6695 9.65298 -5.3622 129.882 4.8529 -43.7014 3.8147e-006 25.813 1.69102 -178.16 -89.1229 179.909 -7.91284e-008 28.5636 -0.966295 -48.3531 26.7362 93.7809 4.18776e-013 23.1438 -0.94499 -2.3753 4.83389 5.8137 -1.1176e-008 20.8625 4.12738 -0.312115 5.33883 6.68719 -1.15664e-007 7.55203 -7.58201 -7.83033e-006 7.24406 1.09249e-005 
-22.657 30.0999 0.183014 -90 -3.50835e-015 -90 0 0 0 -175.642 -1.40416 0.158638 4.32134e-007 42.8363 -0.548134 -0.452858 -6.0374 5.4967 1.77949e-006 44.0461 -3.28882 -0.495109 12.5272 0.68705 1.79296e-006 34.1929 -2.46662 -0.921803 11.6807 6.69459 -1.8311e-006 30.0959 -1.75404 3.56279 14.7512 -3.77349 9.3421e-006 28.3637 -1.75404 6.6204 11.5455 3.20464 5.88837e-006 31.6072 -3.20429 4.49795 5.98093 -13.5913 -27.891 13.5892 3.92723 107.335 -35.9357 -70.2654 3.19737e-006 28.01 1.8232 1.58526 -73.7442 -4.90747 4.32008e-006 24.3992 -2.49173 -145.864 54.9992 -160.823 27.891 13.5892 3.92714 -154.17 -10.6978 47.4071 -3.97393e-006 28.0098 1.82319 6.44599 -50.8202 -43.8767 -5.98291e-006 24.3992 -2.49173 -7.96545 22.6554 -10.9649 6.07685e-007 2.15392 3.55271e-015 -3.99438 -0.527324 -2.87049 -4.44089e-016 62.0609 0.472494 -7.95139e-016 -1.71452e-015 3.97569e-016 22.6695 9.65299 -5.3622 -54.1984 -23.629 72.7309 -1.14441e-005 25.813 1.69098 0.311925 -69.3675 -0.103151 2.17203e-008 28.5636 -0.966314 32.0082 49.056 -105.339 -22.6695 9.65298 -5.3622 135.878 4.93751 -40.664 3.8147e-006 25.813 1.69102 -0.542544 -86.8388 -2.19509 -6.2756e-008 28.5636 -0.966294 -50.4312 18.233 90.3389 4.18776e-013 23.1438 -0.94499 -1.5698 4.8382 4.35705 -1.1176e-008 20.8625 4.12738 -0.428705 5.13771 5.45996 -9.47599e-008 7.55203 -7.58201 -7.70239e-009 7.15505 4.13462e-008 
-17.2923 30.2885 0.349201 -90 -3.50835e-015 -90 0 0 0 -176.368 -2.05531 0.126203 4.32134e-007 42.8363 -0.548134 -0.932449 -4.82555 5.85407 1.81531e-006 44.0461 -3.28882 -2.3856 12.5655 1.5277 2.33145e-006 34.1929 -2.46662 -3.31211 12.7968 7.82297 -5.84653e-007 30.0959 -1.75404 2.67239 15.2124 -4.70241 1.10415e-005 28.3637 -1.75404 5.71621 9.28907 3.91211 7.82078e-006 31.6072 -3.20429 4.01723 6.37682 -14.4658 -27.891 13.5892 3.92723 99.2708 -36.8193 -76.5739 3.1246e-006 28.01 1.8232 1.61816 -69.9166 -7.56613 4.51761e-006 24.3992 -2.49173 -146.08 51.0891 -161.026 27.891 13.5892 3.92714 -151.574 -12.2652 42.3093 -4.12195e-006 28.0098 1.82319 6.61672 -55.4417 -34.7944 -4.78593e-006 24.3992 -2.49173 -8.55538 37.3571 -13.6746 6.07685e-007 2.15392 0 -3.67516 0.446622 -3.18264 0 62.0609 0.472494 1.59028e-015 1.63997e-015 -0 22.6695 9.65299 -5.3622 -56.9385 -31.8064 76.4403 -1.14441e-005 25.813 1.69098 0.333438 -68.1378 -1.81657 8.79759e-008 28.5636 -0.966314 36.9826 44.4095 -112.446 -22.6695 9.65298 -5.3622 141.762 4.87458 -41.0157 3.8147e-006 25.813 1.69102 -0.29995 -83.8625 -1.51222 -5.49548e-008 28.5636 -0.966294 -51.3644 10.928 87.7803 4.20108e-013 23.1438 -0.94499 -0.545475 5.04087 2.30106 -1.1176e-008 20.8625 4.12738 -1.04494 5.03744 3.70098 -5.68743e-008 7.55203 -7.58201 -1.81892e-006 7.09964 2.82323e-006 
-11.8744 30.7386 0.52818 -90 -3.50835e-015 -90 0 0 0 -177.131 -2.71422 0.0819888 4.32134e-007 42.8363 -0.548134 -1.41496 -3.60281 6.23541 1.85015e-006 44.0461 -3.28882 -4.28252 11.8278 2.32093 2.86974e-006 34.1929 -2.46662 -5.74808 13.8966 6.75443 7.83034e-007 30.0959 -1.75404 -0.613831 15.6816 -4.98163 1.36241e-005 28.3637 -1.75404 2.59568 3.07249 5.00351 1.17382e-005 31.6072 -3.2043 2.86126 1.84211 -15.018 -27.891 13.5892 3.92723 89.3983 -37.532 -83.6326 3.05953e-006 28.01 1.8232 1.46899 -63.0013 -8.42353 4.67782e-006 24.3992 -2.49173 -146.714 50.8582 -160.072 27.891 13.5892 3.92714 -148.814 -13.728 38.2476 -4.25915e-006 28.0098 1.82319 6.20181 -60.1457 -26.4893 -3.59993e-006 24.3992 -2.49173 -8.925 52.291 -16.6918 6.07685e-007 2.15392 0 -3.35245 0.277788 -3.57689 -4.44089e-016 62.0609 0.472494 7.95139e-016 2.6339e-015 1.98785e-015 22.6695 9.65299 -5.3622 -69.7568 -38.0152 74.3915 -1.14441e-005 25.813 1.69098 0.53433 -74.992 -3.35851 1.07717e-007 28.5636 -0.966314 40.6141 38.4962 -119.927 -22.6695 9.65298 -5.3622 147.682 5.07974 -41.0449 3.8147e-006 25.813 1.69102 -0.481016 -85.9942 -0.590148 -6.07223e-008 28.5636 -0.966294 -44.0971 8.4557 88.6001 4.18332e-013 23.1438 -0.94499 0.568234 5.14238 -0.02523 -1.1176e-008 20.8625 4.12738 -1.41905 5.13716 1.41833 -1.45845e-008 7.55203 -7.58201 -4.60881e-006 7.04369 5.89893e-006 
-4.92489 31.1931 0.708913 -90 -3.50835e-015 -90 0 0 0 -177.901 -3.37991 0.146527 4.32134e-007 42.8363 -0.548134 -1.90499 -4.30636 6.64683 1.90363e-006 44.0461 -3.28882 -6.1712 10.8718 1.94127 3.45171e-006 34.1929 -2.46662 -8.2143 14.9539 4.32433 2.20709e-006 30.0959 -1.75404 -3.93978 16.0957 -5.84983 1.60004e-005 28.3637 -1.75404 -0.48175 -3.13609 5.42315 1.59244e-005 31.6072 -3.2043 1.7232 -4.87591 -15.5051 -27.891 13.5892 3.92723 78.528 -36.5398 -89.4779 2.99663e-006 28.01 1.8232 1.37809 -55.5698 -6.19895 4.5709e-006 24.3992 -2.49173 -143.856 54.5547 -160.707 27.891 13.5892 3.92714 -145.786 -15.9583 37.175 -4.30999e-006 28.0098 1.82319 5.86306 -65.7465 -20.0257 -2.51545e-006 24.3992 -2.49173 -7.16167 65.9467 -21.3458 6.07685e-007 2.15392 0 -1.83387 0.0916624 -3.06607 0 62.0609 0.472494 -1.19271e-015 -2.28602e-015 -3.97569e-016 22.6695 9.65299 -5.3622 -88.8665 -40.0432 67.9766 -1.14441e-005 25.813 1.69098 2.58719 -86.7575 -3.03741 2.14162e-008 28.5636 -0.966314 40.0802 34.3767 -124.471 -22.6695 9.65298 -5.3622 150.694 1.79216 -49.9109 3.8147e-006 25.813 1.69102 -179.794 -80.5141 -178.743 -3.22218e-008 28.5636 -0.966295 -27.3274 20.3089 99.8312 4.18776e-013 23.1438 -0.94499 1.44841 5.34602 -2.76051 -1.1176e-008 20.8625 4.12738 -0.271865 5.4411 -1.51726 1.21529e-008 7.55203 -7.58201 -3.19573e-008 6.98719 2.41138e-007 
1.88975 31.6387 0.886137 -90 -3.50835e-015 -90 0 0 0 -178.656 -4.03248 0.20246 4.32134e-007 42.8363 -0.548134 -2.38746 -4.99716 7.03937 1.95669e-006 44.0461 -3.28882 -6.66871 11.6254 1.46666 3.637e-006 34.1929 -2.46662 -8.79328 14.0309 1.22192 2.71962e-006 30.0959 -1.75404 -6.51707 15.5769 -6.94776 1.72519e-005 28.3637 -1.75404 -2.85563 -5.97537 5.45519 1.8355e-005 31.6072 -3.2043 0.602976 -9.21157 -16.2659 -27.891 13.5892 3.92723 70.9984 -34.2303 -92.5844 2.9404e-006 28.01 1.8232 0.891591 -48.2863 -4.321 4.42916e-006 24.3992 -2.49173 -140.482 61.2884 -162.211 27.891 13.5892 3.92714 -140.437 -18.7119 38.0045 -4.34709e-006 28.0098 1.82319 5.45739 -71.2394 -13.597 -1.56701e-006 24.3992 -2.49172 -1.82519 76.8464 -30.1534 6.07685e-007 2.15392 7.10543e-015 -0.345502 -1.65097 -2.56635 0 62.0609 0.472494 -9.93923e-017 -7.51655e-016 -1.19271e-015 22.6695 9.65299 -5.3622 -106.731 -36.6419 63.8846 -1.14441e-005 25.813 1.69098 178.913 -81.815 173.436 -1.06645e-007 28.5636 -0.966314 35.484 30.128 -122.801 -22.6695 9.65298 -5.3622 153.502 3.56849 -67.3886 3.8147e-006 25.813 1.69102 -179.886 -63.7094 -179.574 -4.63965e-008 28.5636 -0.966296 3.61436 48.1313 97.4308 4.18332e-013 23.1438 -0.94499 1.84318 5.54582 -5.51325 -1.1176e-008 20.8625 4.12738 2.32104 5.53609 -4.66564 1.70944e-008 7.55203 -7.58201 -1.03107e-005 6.93178 3.01215e-006 
